<?xml version="1.0" encoding="UTF-8"?>
<svg width="18" height="18" version="1.1" viewBox="0 0 18 18" xml:space="preserve" xmlns="http://www.w3.org/2000/svg"><g fill="none" stroke="#cccdcf" stroke-linecap="round" stroke-width="2">

<path transform="matrix(1 0 0 1 2.5073 4.4968)" d="m4.8856 7.0849a2.5 2.5 0 0 1 3.2139 0"/><path transform="matrix(1 0 0 1 2.5073 4.4968)" d="m2.3145 4.0207a6.4999 6.5 0 0 1 8.3561 1e-7"/><path transform="matrix(1 0 0 1 2.5073 4.4968)" d="m0.064773 0.95653a9.9998 10.5 0 0 1 12.856 1.2e-7"/></g><ellipse transform="matrix(1 0 0 1 2.5073 6.5)" cx="6.4925" cy="9" rx="1.5" ry="1.5" fill="#cccdcf" stroke-width="0"/><path d="m3 15 12-12" fill="none" stroke="#cccdcf" stroke-linecap="round" stroke-width="2"/></svg>
