<?xml version="1.0" encoding="UTF-8"?>
<svg width="18" height="18" version="1.1" viewBox="0 0 18 18" xml:space="preserve" xmlns="http://www.w3.org/2000/svg">
<path d="m11.007 9.1375v-4.8398c0-1.2772-1.215-2.3163-2.4925-2.3163-1.2773 0-2.5045 1.0391-2.5045 2.3163v4.8397c-0.94894 0.72287-1.3197 1.8393-1.3197 3.0383 0 2.1087 1.7155 3.8243 3.8242 3.8243 2.1089 0 3.8245-1.7155 3.8245-3.8243 0-1.1989-0.3832-2.3153-1.332-3.0383zm-2.4925 5.8625c-1.5573 0-2.8242-1.2669-2.8242-2.8243 0-0.95294 0.29107-1.8358 1.0937-2.3617 0.141-0.0924 0.226-0.24967 0.226-0.4182v-5.0982c0-0.7258 0.77867-1.3163 1.5045-1.3163 0.72614 0 1.4925 0.59046 1.4925 1.3163v5.0982c0 0.1686 0.0849 0.3258 0.226 0.4182 0.80254 0.52593 1.1061 1.4088 1.1061 2.3617-1.4e-4 1.5573-1.2672 2.8243-2.8246 2.8243z" stroke-width=".066667"/><path d="m9.0141 10.59v-4.0781c0-0.27614-0.2238-0.5-0.5-0.5s-0.5 0.22386-0.5 0.5v4.0781c-0.6736 0.2122-1.162 0.84147-1.162 1.5855 0 0.9178 0.744 1.6621 1.662 1.6621 0.9182 0 1.6621-0.74426 1.6621-1.6621-6e-5 -0.74414-0.48846-1.3735-1.1621-1.5855z" stroke-width=".066667"/>
</svg>
