<?xml version="1.0" encoding="UTF-8"?>
<svg width="18" height="18" version="1.1" viewBox="0 0 18 18" xmlns="http://www.w3.org/2000/svg">
 <g fill="none" stroke="#cccdcf">
  <path d="m8.491 10.658c0 0.10355-0.00155 0.54649-0.021505 0.64413-0.01998 0.09764-0.04945 0.19184-0.087403 0.28156-0.03795 0.08973-0.084387 0.175-0.1383 0.2548-0.053912 0.0798-0.1153 0.15413-0.18316 0.222-0.067862 0.06786-0.1422 0.12925-0.222 0.18316-0.079801 0.05391-0.16507 0.10035-0.2548 0.1383-0.089728 0.03795-0.18392 0.06742-0.28156 0.0874-0.097648 0.019984-0.19875 0.030478-0.3023 0.030478s-0.20466-0.0105-0.3023-0.03047c-0.097646-0.01998-0.19184-0.04945-0.28156-0.0874-0.089729-0.03795-0.175-0.08439-0.2548-0.1383-0.0798-0.05392-0.15413-0.11531-0.222-0.18317-0.067862-0.067862-0.12925-0.1422-0.18316-0.222-0.053912-0.079801-0.10035-0.16507-0.1383-0.2548s-0.067422-0.18392-0.087403-0.28156c-0.019981-0.097647-0.030474-0.19875-0.030474-0.3023 0-0.10355 0.010495-0.20466 0.030475-0.3023 0.01998-0.09765 0.04945-0.19184 0.087403-0.28156 0.03795-0.08973 0.084387-0.175 0.1383-0.2548 0.053912-0.0798 0.1153-0.15413 0.18316-0.222s0.1422-0.12925 0.222-0.18316c0.079801-0.053912 0.16507-0.10035 0.2548-0.1383 0.089728-0.03795 0.34654-0.070273 0.44418-0.090255 0.097646-0.01998 0.19875-0.030475 0.3023-0.030475 0 0 3.5216-3.182 5.0692-4.4503 0.0798 0.053912 0.4202 0.30395 0.48806 0.37181 0.06786 0.067861 0.31257 0.24088 0.36648 0.32068-1.2947 1.4684-4.6045 4.909-4.5953 4.9188z" stroke-linecap="round" stroke-linejoin="bevel"/>
  <path d="m7.1158 7.1919-0.55392-0.54186" stroke-linecap="square"/>
  <path d="m9.3383 5.3462-0.47951-0.5037" stroke-linecap="square"/>
 </g>
 <rect transform="rotate(44.127)" x="12.281" y="-4.6726" width="1" height="4" fill="#cccdcf"/>
</svg>
