<?xml version="1.0" encoding="UTF-8" standalone="no"?>
<svg width="14" height="18" version="1.1" viewBox="0 0 14 18" id="svg12" sodipodi:docname="vol_3.svg" inkscape:version="1.1 (c68e22c387, 2021-05-23)" xmlns:inkscape="http://www.inkscape.org/namespaces/inkscape" xmlns:sodipodi="http://sodipodi.sourceforge.net/DTD/sodipodi-0.dtd" xmlns="http://www.w3.org/2000/svg" xmlns:svg="http://www.w3.org/2000/svg">
  <defs id="defs16" />
  <sodipodi:namedview id="namedview14" pagecolor="#ffffff" bordercolor="#666666" borderopacity="1.0" inkscape:pageshadow="2" inkscape:pageopacity="0.0" inkscape:pagecheckerboard="0" showgrid="true" inkscape:current-layer="svg12" showguides="false" inkscape:snap-global="false" units="mm">
    <inkscape:grid type="xygrid" id="grid18" />
  </sodipodi:namedview>
  <path style="fill:none;stroke:#cccdcf;stroke-width:1;stroke-linecap:round;stroke-miterlimit:4;stroke-dasharray:none" id="path42" sodipodi:type="arc" sodipodi:cx="6.5180693" sodipodi:cy="9" sodipodi:rx="3" sodipodi:ry="3" sodipodi:start="5.4105207" sodipodi:end="0.87266463" sodipodi:arc-type="arc" d="M 8.4464321,6.7018667 A 3,3 0 0 1 9.5180693,9 3,3 0 0 1 8.4464321,11.298133" sodipodi:open="true" />
  <path style="fill:none;stroke:#cccdcf;stroke-width:1;stroke-linecap:round;stroke-miterlimit:4;stroke-dasharray:none" id="path226" sodipodi:type="arc" sodipodi:cx="6.4925423" sodipodi:cy="9" sodipodi:rx="1" sodipodi:ry="1" sodipodi:start="5.4105207" sodipodi:end="0.87266463" sodipodi:arc-type="arc" d="M 7.1353299,8.2339556 A 1,1 0 0 1 7.4925423,9 1,1 0 0 1 7.1353299,9.7660444" sodipodi:open="true" />
  <path style="fill:#cccdcf;fill-opacity:1;fill-rule:evenodd;stroke:none;stroke-width:1px;stroke-linecap:butt;stroke-linejoin:miter;stroke-opacity:1" d="m 6,5 v 8 L 4,11 H 2 V 7 H 4 L 6,5" id="path559" />
  <path style="fill:none;stroke:#cccdcf;stroke-width:1;stroke-linecap:round;stroke-miterlimit:4;stroke-dasharray:none" id="path1728" sodipodi:type="arc" sodipodi:cx="6.5098515" sodipodi:cy="9" sodipodi:rx="5" sodipodi:ry="5" sodipodi:start="5.4105207" sodipodi:end="0.87266463" sodipodi:arc-type="arc" d="M 9.7237895,5.1697778 A 5,5 0 0 1 11.509851,9 5,5 0 0 1 9.7237895,12.830222" sodipodi:open="true" />
</svg>
